<svg xmlns="http://www.w3.org/2000/svg" width="24" height="24" viewBox="0 0 24 24">
  <g id="icon_donor_walk" transform="translate(-203 -3122)">
    <rect id="Path" width="24" height="24" transform="translate(203 3122)" fill="rgba(0,0,0,0)"/>
    <path id="Icon" d="M217,3145a1,1,0,0,1-1-1v-5l-2.1-2-1.62,7.22a1.009,1.009,0,0,1-.98.78h-.08a1,1,0,0,1-.781-.373.972.972,0,0,1-.2-.817l2.56-12.91-1.8.7v2.4a1,1,0,1,1-2,0v-2.37a2.016,2.016,0,0,1,1.22-1.85l3.83-1.62a2.121,2.121,0,0,1,.829-.169A2.144,2.144,0,0,1,216.7,3129l1,1.6a4.875,4.875,0,0,0,3.45,2.33,1,1,0,0,1-.144,1.991.97.97,0,0,1-.146-.011,7.276,7.276,0,0,1-4.36-2.41l-.6,3,1.48,1.409a1.978,1.978,0,0,1,.62,1.45V3144A1,1,0,0,1,217,3145Zm-.5-17.5a2,2,0,1,1,2-2A2,2,0,0,1,216.5,3127.5Z" fill="#a3a2a2"/>
  </g>
</svg>
