<svg xmlns="http://www.w3.org/2000/svg" width="26.916" height="14.954" viewBox="0 0 26.916 14.954">
  <path id="icon_donor_bike_white" d="M29.45,21.114a5.073,5.073,0,0,1-.257,2.319,5.145,5.145,0,0,1-3.008,3.148,5.195,5.195,0,0,1-5.561-1.1,5.01,5.01,0,0,1-1.571-3.2,5.085,5.085,0,0,1,.321-2.459,5.242,5.242,0,0,1,1.384-1.992l-.829-1.25a6.708,6.708,0,0,0-1.764,2.266,6.475,6.475,0,0,0-.643,2.85.762.762,0,0,1-.216.543.7.7,0,0,1-.532.228h-3.8a5.056,5.056,0,0,1-1.741,3.2A5.06,5.06,0,0,1,7.8,26.955a5.04,5.04,0,0,1-3.7-1.536,5.217,5.217,0,0,1,0-7.395,5.04,5.04,0,0,1,3.7-1.536A5.274,5.274,0,0,1,9.58,16.8l.28-.526a5.133,5.133,0,0,0-3.551-1.285H5.561a.748.748,0,0,1,0-1.5h1.5a8.577,8.577,0,0,1,1.694.158,5.367,5.367,0,0,1,1.361.45,9.2,9.2,0,0,1,.835.461q.257.169.6.426h7.324l-.993-1.5H15.28a.715.715,0,0,1-.572-.263.723.723,0,0,1-.164-.613.7.7,0,0,1,.269-.444.789.789,0,0,1,.5-.175h2.955a.726.726,0,0,1,.619.327l.818,1.227,1.332-1.332A.732.732,0,0,1,21.577,12h1.18a.758.758,0,0,1,.748.748v1.5a.758.758,0,0,1-.748.748H20.666L22.009,17a5.235,5.235,0,0,1,7.441,4.112ZM7.8,25.46a3.621,3.621,0,0,0,2.371-.847,3.666,3.666,0,0,0,1.3-2.144H7.8a.727.727,0,0,1-.643-.362.714.714,0,0,1-.012-.736l1.717-3.236A3.981,3.981,0,0,0,7.8,17.983a3.6,3.6,0,0,0-2.64,1.1,3.723,3.723,0,0,0,0,5.28,3.6,3.6,0,0,0,2.64,1.1Zm16.448,0a3.734,3.734,0,0,0,2.64-6.378,3.6,3.6,0,0,0-2.64-1.1,3.839,3.839,0,0,0-1.413.28L24.871,21.3a.753.753,0,0,1,.117.572.684.684,0,0,1-.315.467.692.692,0,0,1-.421.129.684.684,0,0,1-.619-.339L21.6,19.093a3.738,3.738,0,0,0,2.652,6.367Z" transform="translate(-2.571 -12.002)" fill="#fff"/>
</svg>
