<svg id="icon_notification" xmlns="http://www.w3.org/2000/svg" width="24" height="24" viewBox="0 0 24 24">
  <g id="Notification" transform="translate(3.5 2)">
    <path id="Notification-2" data-name="Notification" d="M6.264,19.237a1.628,1.628,0,0,1-.7-1.165c0-.5.465-.729.895-.827a7.466,7.466,0,0,1,1.53-.16H9.664a3.48,3.48,0,0,1,1.431.356h.027a.885.885,0,0,1,.143,1.227,3.078,3.078,0,0,1-2.318,1.307,3.687,3.687,0,0,1-2.684-.737ZM3.687,15.725A4.486,4.486,0,0,1,.833,14.33,3.608,3.608,0,0,1,0,11.911v-.2a3.742,3.742,0,0,1,.6-1.84A5.122,5.122,0,0,0,1.791,7.52c.054-.676,0-1.36.054-2.036C2.184,2.24,5.316,0,8.447,0h.089c3.1,0,6.289,2.24,6.62,5.485.054.667,0,1.36.054,2.036a5.023,5.023,0,0,0,1.172,2.346A3.657,3.657,0,0,1,17,11.707v.2a3.66,3.66,0,0,1-.895,2.418,4.488,4.488,0,0,1-2.819,1.395,37.648,37.648,0,0,1-4.8.307A37.664,37.664,0,0,1,3.687,15.725Z" fill="#e8604c"/>
  </g>
</svg>
