<svg xmlns="http://www.w3.org/2000/svg" width="15.999" height="19" viewBox="0 0 15.999 19">
  <path id="icon_donor_bus_white" d="M424.5,3143a1.5,1.5,0,0,1-1.5-1.5v-.5h-8v.5a1.5,1.5,0,1,1-3,0v-1.28a3,3,0,0,1-1-2.22v-10a3.288,3.288,0,0,1,2.342-3.312,23.63,23.63,0,0,1,11.315,0A3.288,3.288,0,0,1,427,3128v10a3,3,0,0,1-1,2.22v1.28A1.5,1.5,0,0,1,424.5,3143Zm-1-7a1.5,1.5,0,1,0,1.5,1.5A1.5,1.5,0,0,0,423.5,3136Zm-9,0a1.5,1.5,0,1,0,1.5,1.5A1.5,1.5,0,0,0,414.5,3136Zm-1.5-8v5h12v-5Z" transform="translate(-411 -3124)" fill="#fff"/>
</svg>
