<svg xmlns="http://www.w3.org/2000/svg" width="106.579" height="120" viewBox="0 0 106.579 120">
  <g id="image_watermark" transform="translate(-28.63 0.001)">
    <g id="Group_7" data-name="Group 7" transform="translate(28.63 -0.001)">
      <g id="Group_6" data-name="Group 6" transform="translate(0)">
        <path id="Path_5" data-name="Path 5" d="M390.986,338.618a1.758,1.758,0,0,0-1.758,1.758v4.234a1.812,1.812,0,0,1-.534,1.289l-21.452,21.452A7.6,7.6,0,0,0,365,372.758l0,4.736a1.758,1.758,0,0,0,1.757,1.759h0a1.758,1.758,0,0,0,1.758-1.757l0-4.737a4.1,4.1,0,0,1,1.21-2.922l21.452-21.452a5.305,5.305,0,0,0,1.564-3.775v-4.234a1.758,1.758,0,0,0-1.758-1.758Z" transform="translate(-286.164 -259.254)" fill="#eaf4f3"/>
        <path id="Path_6" data-name="Path 6" d="M301.05,286.446a6.872,6.872,0,0,0-4.62,2.011L281.181,303.67a11.744,11.744,0,0,0-3.464,8.366l0,11.683a1.758,1.758,0,0,0,1.758,1.758h0a1.758,1.758,0,0,0,1.758-1.758l0-11.684a8.25,8.25,0,0,1,2.433-5.877l15.249-15.212a3.386,3.386,0,0,1,4.789,4.789l-9.364,9.364a1.758,1.758,0,0,0,2.486,2.486l18.336-18.335a1.757,1.757,0,0,0,.515-1.243v-12.75a3.362,3.362,0,1,1,6.723,0v2.922a1.758,1.758,0,0,0,3.516,0v-2.922a6.877,6.877,0,0,0-13.574-1.567,6.856,6.856,0,0,0-5.222,5.879,6.951,6.951,0,0,0-6.07,6.879Zm3.516.808V286.4a3.372,3.372,0,0,1,2.505-3.246v6.391a6.9,6.9,0,0,0-2.505-2.287Zm6.021,1.6v-8.476a3.354,3.354,0,0,1,1.574-2.848v9.75Z" transform="translate(-219.336 -205.476)" fill="#eaf4f3"/>
        <path id="Path_7" data-name="Path 7" d="M53.495,286.447a6.951,6.951,0,0,0-6.069-6.88,6.858,6.858,0,0,0-5.222-5.879,6.877,6.877,0,0,0-13.574,1.568v15.576a5.3,5.3,0,0,0,1.564,3.775L51.646,316.06a4.1,4.1,0,0,1,1.21,2.922l0,4.736a1.758,1.758,0,0,0,1.758,1.757h0a1.758,1.758,0,0,0,1.757-1.759l0-4.735a7.6,7.6,0,0,0-2.239-5.408L32.68,292.122a1.811,1.811,0,0,1-.534-1.289V275.256a3.362,3.362,0,1,1,6.723,0v12.75a1.758,1.758,0,0,0,.515,1.243L57.72,307.585a1.758,1.758,0,0,0,2.486-2.486l-9.364-9.364a3.386,3.386,0,1,1,4.79-4.788l15.246,15.21a8.252,8.252,0,0,1,2.435,5.88l0,11.683a1.758,1.758,0,0,0,3.516,0l0-11.681a11.747,11.747,0,0,0-3.465-8.369l-15.246-15.21a6.874,6.874,0,0,0-4.622-2.012Zm-11.11-8.919a3.355,3.355,0,0,1,1.574,2.847v8.476l-1.574-1.574Zm5.971,10.931a6.919,6.919,0,0,0-.882,1.082V283.15a3.372,3.372,0,0,1,2.5,3.246v.859A6.884,6.884,0,0,0,48.356,288.459Z" transform="translate(-28.63 -205.477)" fill="#eaf4f3"/>
        <path id="Path_8" data-name="Path 8" d="M53.5,39.085a6.931,6.931,0,0,0,4.62-2.062l7.894-7.875a1.758,1.758,0,1,0-2.483-2.489l-7.9,7.876a3.386,3.386,0,1,1-4.789-4.789l9.364-9.364A1.758,1.758,0,0,0,57.721,17.9L39.385,36.232a1.757,1.757,0,0,0-.515,1.243v12.75a3.362,3.362,0,0,1-6.723,0V34.649a1.811,1.811,0,0,1,.534-1.289L54.133,11.908A7.6,7.6,0,0,0,56.372,6.5l0-4.736A1.758,1.758,0,0,0,54.617.006h0a1.758,1.758,0,0,0-1.758,1.757l0,4.737a4.1,4.1,0,0,1-1.21,2.921L30.195,30.874a5.3,5.3,0,0,0-1.564,3.775V50.225A6.877,6.877,0,0,0,42.2,51.793a6.863,6.863,0,0,0,5.221-5.879A6.9,6.9,0,0,0,53.5,39.085Zm-3.516-.859v.859a3.372,3.372,0,0,1-2.5,3.246V35.94a6.886,6.886,0,0,0,2.5,2.286Zm-6.02-1.6v8.476a3.356,3.356,0,0,1-1.574,2.847V38.2Z" transform="translate(-28.631 -0.004)" fill="#eaf4f3"/>
        <path id="Path_9" data-name="Path 9" d="M202.51,23.711a1.754,1.754,0,0,0,1.242-.513l1.394-1.391a11.746,11.746,0,0,0,3.464-8.366l0-11.683A1.758,1.758,0,0,0,206.854,0h0A1.758,1.758,0,0,0,205.1,1.758l0,11.684a8.25,8.25,0,0,1-2.433,5.877l-1.393,1.39a1.758,1.758,0,0,0,1.241,3Z" transform="translate(-160.411 0)" fill="#eaf4f3"/>
        <path id="Path_10" data-name="Path 10" d="M301.05,39.029a6.951,6.951,0,0,0,6.07,6.88,6.861,6.861,0,0,0,5.221,5.879,6.877,6.877,0,0,0,13.574-1.568V34.643a5.3,5.3,0,0,0-1.564-3.775L302.9,9.416a4.1,4.1,0,0,1-1.21-2.923l0-4.736A1.758,1.758,0,0,0,299.93,0h0a1.758,1.758,0,0,0-1.757,1.759l0,4.735a7.6,7.6,0,0,0,2.239,5.408l21.452,21.452a1.811,1.811,0,0,1,.534,1.289V50.22a3.362,3.362,0,0,1-6.723,0V37.47a1.758,1.758,0,0,0-.515-1.243L296.825,17.891a1.758,1.758,0,1,0-2.486,2.486l9.364,9.364a3.386,3.386,0,1,1-4.79,4.788L283.667,19.32a8.252,8.252,0,0,1-2.434-5.88l0-11.683a1.758,1.758,0,1,0-3.516,0l0,11.681a11.746,11.746,0,0,0,3.465,8.369l15.247,15.21a6.875,6.875,0,0,0,4.622,2.012Zm3.516.051v-.859a6.886,6.886,0,0,0,2.505-2.286v6.391A3.372,3.372,0,0,1,304.566,39.08Zm6.021,6.021V36.624L312.16,38.2v9.75A3.355,3.355,0,0,1,310.587,45.1Z" transform="translate(-219.336 0.001)" fill="#eaf4f3"/>
        <path id="Path_11" data-name="Path 11" d="M182.614,176.774a16.9,16.9,0,0,0-23.872,0l-1.389,1.389-1.389-1.389a16.88,16.88,0,0,0-23.872,23.873l6.144,6.144a1.758,1.758,0,1,0,2.486-2.486l-6.144-6.144a13.365,13.365,0,0,1,18.9-18.9l2.632,2.632a1.758,1.758,0,0,0,2.486,0l2.632-2.632a13.365,13.365,0,1,1,18.9,18.9l-21.656,21.656a1.582,1.582,0,0,1-2.239,0l-9.558-9.558a1.758,1.758,0,0,0-2.486,2.486l9.558,9.558a5.1,5.1,0,0,0,7.211,0l21.656-21.656a16.9,16.9,0,0,0,0-23.873Z" transform="translate(-104.063 -131.563)" fill="#eaf4f3"/>
      </g>
    </g>
  </g>
</svg>
