<svg xmlns="http://www.w3.org/2000/svg" width="20.3" height="23.683" viewBox="0 0 20.3 23.683">
  <path id="menu_5" d="M22.544,3H6.756A2.255,2.255,0,0,0,4.5,5.256V21.044A2.255,2.255,0,0,0,6.756,23.3h4.511l3.383,3.383L18.033,23.3h4.511A2.262,2.262,0,0,0,24.8,21.044V5.256A2.262,2.262,0,0,0,22.544,3ZM15.778,21.044H13.522V18.789h2.256Zm2.334-8.74L17.1,13.342a3.839,3.839,0,0,0-1.319,3.192H13.522v-.564a4.539,4.539,0,0,1,1.319-3.192l1.4-1.421a2.205,2.205,0,0,0,.665-1.59,2.256,2.256,0,1,0-4.511,0H10.139a4.511,4.511,0,1,1,9.022,0A3.589,3.589,0,0,1,18.112,12.3Z" transform="translate(-4.5 -3)" fill="#363636"/>
</svg>
