<svg xmlns="http://www.w3.org/2000/svg" width="26.442" height="30.848" viewBox="0 0 26.442 30.848">
  <path id="menu_4" d="M-660.933-2245.152a11.608,11.608,0,0,1-3.433-.671,11.431,11.431,0,0,1-3.159-1.462.361.361,0,0,1-.138-.275.333.333,0,0,1,.086-.232.287.287,0,0,1,.224-.1.962.962,0,0,1,.31.13c.161.085.336.18.526.283s.307.167.353.19a15.287,15.287,0,0,0,2.746,1.058,10.047,10.047,0,0,0,2.711.422,14.688,14.688,0,0,0,2.875-.25,14.179,14.179,0,0,0,2.7-.869c.173-.08.347-.169.526-.266s.373-.207.585-.328.376-.214.49-.283l-.74-1.256,2.72.223-.93,2.755-.688-1.137a12.761,12.761,0,0,1-4.751,1.859,8.248,8.248,0,0,1-1.567.206Zm-12.05-4.08a.128.128,0,0,0-.017-.051v-18.557a.751.751,0,0,1,.069-.173.777.777,0,0,1,.344-.189q1.825-.6,2.565-.86v-6.611l9.606,3.408q.035,0,2.763-.947t5.44-1.868q2.712-.922,2.781-.922.344,0,.344.362v7.2l2.531.809v18.575l-13.324-4.235q-.24.1-6.456,2.2t-6.334,2.092A.312.312,0,0,1-672.983-2249.231Zm.654-18.333v17.748l11.947-3.994v-17.765Zm20.726,9.967.637,2.325,1.756.533-3.116-11.31-1.722-.534-3.718,9.227,1.756.534.775-1.894Zm-8.022-14.236,9.864,3.168v-6.542Zm-4.677,15.7-.107-3.074a3.749,3.749,0,0,1-1.476.249,2.182,2.182,0,0,1,.048.374,1.7,1.7,0,0,1-.478,1.307,1.894,1.894,0,0,1-1.339.543,2.325,2.325,0,0,1-1.892-.9,4.48,4.48,0,0,1-1.03-2.252l.342-.012a3.179,3.179,0,0,0,.847,1.625,1.85,1.85,0,0,0,1.4.608,1.5,1.5,0,0,0,.917-.361,1.077,1.077,0,0,0,.4-.923,1.079,1.079,0,0,0-.227-.618,1.222,1.222,0,0,0-.613-.423,1.944,1.944,0,0,0-.651-.124,4.1,4.1,0,0,0-.769.136l-.8-.868a5.181,5.181,0,0,0,2-.573q.751-.433.731-1.007a.729.729,0,0,0-.332-.59,1.185,1.185,0,0,0-.756-.212,4.47,4.47,0,0,0-1.978.746l-.638-.853a4.983,4.983,0,0,1,1.865-.462,2.594,2.594,0,0,1,1.716.47,1.727,1.727,0,0,1,.694,1.382,1.318,1.318,0,0,1-.29.893,2.345,2.345,0,0,1-.942.655,4.658,4.658,0,0,0,1.876.455,1.17,1.17,0,0,0,1.294-1.352l-.059-1.68-1.038.036-.8-.943,4.953-.173.034.97-2.077.072.272,7.774-.287.01Zm9.739-4.269,1.308-3.185,1.085,3.908Zm-11.164-5.689h0Zm.011,0h0Zm0,0h0Zm.031,0-.031,0Zm0,0h0Zm.016,0-.016,0Zm0,0h0Zm.014,0-.014,0Zm0,0h0Zm.015,0-.015,0Z" transform="translate(673 2276)"/>
</svg>
