<svg xmlns="http://www.w3.org/2000/svg" width="24" height="24" viewBox="0 0 24 24">
  <g id="menu_1" transform="translate(-37 -107)">
    <g id="Iconly_Bold_Profile" data-name="Iconly/Bold/Profile" transform="translate(37 107)">
      <g id="Profile" transform="translate(4 2)">
        <path id="Profile-2" data-name="Profile" d="M6.645,20a6.409,6.409,0,0,0-.8-.053A16.081,16.081,0,0,1,3.5,19.653c-1.669-.32-2.759-.89-3.227-1.779a2.459,2.459,0,0,1-.009-2.251c.459-.89,1.549-1.468,3.236-1.779a17.155,17.155,0,0,1,2.345-.294,26.912,26.912,0,0,1,4.326,0,17.585,17.585,0,0,1,2.335.294c1.67.337,2.759.889,3.227,1.779a2.461,2.461,0,0,1,0,2.215c-.467.89-1.514,1.477-3.244,1.779a16.745,16.745,0,0,1-2.336.3A19.91,19.91,0,0,1,7.968,20ZM2.751,5.4A5.327,5.327,0,0,1,8,0a5.327,5.327,0,0,1,5.252,5.4A5.328,5.328,0,0,1,8,10.8,5.328,5.328,0,0,1,2.751,5.4Z" fill="#363636"/>
      </g>
    </g>
    <path id="Icon_awesome-star" data-name="Icon awesome-star" d="M5.086.271l-1,2.021-2.23.325a.489.489,0,0,0-.27.833L3.2,5.022,2.821,7.243a.488.488,0,0,0,.708.514L5.524,6.709,7.519,7.757a.489.489,0,0,0,.708-.514L7.846,5.022,9.459,3.45a.489.489,0,0,0-.27-.833l-2.23-.325-1-2.021a.489.489,0,0,0-.876,0Z" transform="translate(43.559 123.001)" fill="#fff"/>
  </g>
</svg>
